solid STL generated by MeshLab
  facet normal 0.00 0.00 1.00
    outer loop
      vertex  0.00 0.00 0.50
      vertex  1.00 0.00 1.00
      vertex  0.00 1.00 1.00
    endloop
  endfacet
  facet normal 0.00 0.00 1.00
    outer loop
      vertex  1.00 1.00 1.00
      vertex  0.00 1.00 1.00
      vertex  1.00 0.00 1.00
    endloop
  endfacet
  facet normal 1.00 -0.00 0.00
    outer loop
      vertex  1.00 0.00 1.00
      vertex  1.00 0.00 0.00
      vertex  1.00 1.00 1.00
    endloop
  endfacet
  facet normal 1.00 0.00 -0.00
    outer loop
      vertex  1.00 1.00 0.00
      vertex  1.00 1.00 1.00
      vertex  1.00 0.00 0.00
    endloop
  endfacet
  facet normal 0.00 0.00 -1.00
    outer loop
      vertex  1.00 0.00 0.00
      vertex  0.00 0.00 0.00
      vertex  1.00 1.00 0.00
    endloop
  endfacet
  facet normal 0.00 0.00 -1.00
    outer loop
      vertex  0.00 1.00 0.00
      vertex  1.00 1.00 0.00
      vertex  0.00 0.00 0.00
    endloop
  endfacet
  facet normal -1.00 0.00 0.00
    outer loop
      vertex  0.00 0.00 0.00
      vertex  0.00 0.00 0.50
      vertex  0.00 1.00 0.00
    endloop
  endfacet
  facet normal -1.00 -0.00 -0.00
    outer loop
      vertex  0.00 1.00 1.00
      vertex  0.00 1.00 0.00
      vertex  0.00 0.00 0.50
    endloop
  endfacet
  facet normal -0.00 1.00 0.00
    outer loop
      vertex  0.00 1.00 1.00
      vertex  1.00 1.00 1.00
      vertex  0.00 1.00 0.00
    endloop
  endfacet
  facet normal 0.00 1.00 -0.00
    outer loop
      vertex  1.00 1.00 0.00
      vertex  0.00 1.00 0.00
      vertex  1.00 1.00 1.00
    endloop
  endfacet
  facet normal -0.00 -1.00 -0.00
    outer loop
      vertex  1.00 0.00 1.00
      vertex  0.00 0.00 0.50
      vertex  1.00 0.00 0.00
    endloop
  endfacet
  facet normal 0.00 -1.00 0.00
    outer loop
      vertex  0.00 0.00 0.00
      vertex  1.00 0.00 0.00
      vertex  0.00 0.00 0.50
    endloop
  endfacet
endsolid vcg
