solid STL generated by MeshLab
  facet normal -2.598821e-001 -8.797104e-001 -3.982095e-001
    outer loop
      vertex  -1.913410e-001 -4.340490e-001 1.094591e+000
      vertex  0.000000e+000 -2.720700e-002 7.093600e-002
      vertex  -9.754400e-002 -4.624590e-001 1.096139e+000
    endloop
  endfacet
  facet normal 8.775135e-002 -9.138978e-001 -3.963464e-001
    outer loop
      vertex  0.000000e+000 -4.720520e-001 1.096662e+000
      vertex  0.000000e+000 -2.720700e-002 7.093600e-002
      vertex  9.754500e-002 -4.624590e-001 1.096139e+000
    endloop
  endfacet
  facet normal -4.220378e-001 -8.126432e-001 -4.018644e-001
    outer loop
      vertex  -2.777850e-001 -3.879120e-001 1.092077e+000
      vertex  0.000000e+000 -2.720700e-002 7.093600e-002
      vertex  -1.913410e-001 -4.340490e-001 1.094591e+000
    endloop
  endfacet
  facet normal -5.679627e-001 -7.152839e-001 -4.071700e-001
    outer loop
      vertex  -3.535530e-001 -3.258230e-001 1.088693e+000
      vertex  0.000000e+000 -2.720700e-002 7.093600e-002
      vertex  -2.777850e-001 -3.879120e-001 1.092077e+000
    endloop
  endfacet
  facet normal -6.920683e-001 -5.913621e-001 -4.139230e-001
    outer loop
      vertex  -4.157340e-001 -2.501670e-001 1.084570e+000
      vertex  0.000000e+000 -2.720700e-002 7.093600e-002
      vertex  -3.535530e-001 -3.258230e-001 1.088693e+000
    endloop
  endfacet
  facet normal -7.895702e-001 -4.456574e-001 -4.218632e-001
    outer loop
      vertex  -4.619400e-001 -1.638520e-001 1.079867e+000
      vertex  0.000000e+000 -2.720700e-002 7.093600e-002
      vertex  -4.157340e-001 -2.501670e-001 1.084570e+000
    endloop
  endfacet
  facet normal -8.567367e-001 -2.837451e-001 -4.306867e-001
    outer loop
      vertex  -4.903930e-001 -7.019400e-002 1.074763e+000
      vertex  0.000000e+000 -2.720700e-002 7.093600e-002
      vertex  -4.619400e-001 -1.638520e-001 1.079867e+000
    endloop
  endfacet
  facet normal -8.909771e-001 -1.118610e-001 -4.400535e-001
    outer loop
      vertex  -5.000000e-001 2.720700e-002 1.069455e+000
      vertex  0.000000e+000 -2.720700e-002 7.093600e-002
      vertex  -4.903930e-001 -7.019400e-002 1.074763e+000
    endloop
  endfacet
  facet normal -8.909771e-001 6.337883e-002 -4.496031e-001
    outer loop
      vertex  -4.903930e-001 1.246070e-001 1.064147e+000
      vertex  0.000000e+000 -2.720700e-002 7.093600e-002
      vertex  -5.000000e-001 2.720700e-002 1.069455e+000
    endloop
  endfacet
  facet normal -8.567370e-001 2.352623e-001 -4.589699e-001
    outer loop
      vertex  -4.619400e-001 2.182650e-001 1.059043e+000
      vertex  0.000000e+000 -2.720700e-002 7.093600e-002
      vertex  -4.903930e-001 1.246070e-001 1.064147e+000
    endloop
  endfacet
  facet normal -7.895732e-001 3.971699e-001 -4.677930e-001
    outer loop
      vertex  -4.157350e-001 3.045800e-001 1.054339e+000
      vertex  0.000000e+000 -2.720700e-002 7.093600e-002
      vertex  -4.619400e-001 2.182650e-001 1.059043e+000
    endloop
  endfacet
  facet normal -6.920696e-001 5.428789e-001 -4.757334e-001
    outer loop
      vertex  -3.535540e-001 3.802370e-001 1.050217e+000
      vertex  0.000000e+000 -2.720700e-002 7.093600e-002
      vertex  -4.157350e-001 3.045800e-001 1.054339e+000
    endloop
  endfacet
  facet normal -5.679614e-001 6.668032e-001 -4.824866e-001
    outer loop
      vertex  -2.777850e-001 4.423260e-001 1.046833e+000
      vertex  0.000000e+000 -2.720700e-002 7.093600e-002
      vertex  -3.535540e-001 3.802370e-001 1.050217e+000
    endloop
  endfacet
  facet normal -4.220329e-001 7.641643e-001 -4.877920e-001
    outer loop
      vertex  -1.913420e-001 4.884620e-001 1.044319e+000
      vertex  0.000000e+000 -2.720700e-002 7.093600e-002
      vertex  -2.777850e-001 4.423260e-001 1.046833e+000
    endloop
  endfacet
  facet normal -2.598886e-001 8.312270e-001 -4.914465e-001
    outer loop
      vertex  -9.754500e-002 5.168730e-001 1.042771e+000
      vertex  0.000000e+000 -2.720700e-002 7.093600e-002
      vertex  -1.913420e-001 4.884620e-001 1.044319e+000
    endloop
  endfacet
  facet normal -8.775367e-002 8.654160e-001 -4.933096e-001
    outer loop
      vertex  -0.000000e+000 5.264660e-001 1.042248e+000
      vertex  0.000000e+000 -2.720700e-002 7.093600e-002
      vertex  -9.754500e-002 5.168730e-001 1.042771e+000
    endloop
  endfacet
  facet normal 8.775367e-002 8.654160e-001 -4.933096e-001
    outer loop
      vertex  9.754500e-002 5.168730e-001 1.042771e+000
      vertex  0.000000e+000 -2.720700e-002 7.093600e-002
      vertex  -0.000000e+000 5.264660e-001 1.042248e+000
    endloop
  endfacet
  facet normal 2.598803e-001 8.312293e-001 -4.914469e-001
    outer loop
      vertex  1.913420e-001 4.884630e-001 1.044319e+000
      vertex  0.000000e+000 -2.720700e-002 7.093600e-002
      vertex  9.754500e-002 5.168730e-001 1.042771e+000
    endloop
  endfacet
  facet normal 4.220397e-001 7.641605e-001 -4.877921e-001
    outer loop
      vertex  2.777850e-001 4.423260e-001 1.046833e+000
      vertex  0.000000e+000 -2.720700e-002 7.093600e-002
      vertex  1.913420e-001 4.884630e-001 1.044319e+000
    endloop
  endfacet
  facet normal 5.679619e-001 6.668028e-001 -4.824866e-001
    outer loop
      vertex  3.535530e-001 3.802370e-001 1.050216e+000
      vertex  0.000000e+000 -2.720700e-002 7.093600e-002
      vertex  2.777850e-001 4.423260e-001 1.046833e+000
    endloop
  endfacet
  facet normal 6.920648e-001 5.428845e-001 -4.757338e-001
    outer loop
      vertex  4.157350e-001 3.045810e-001 1.054339e+000
      vertex  0.000000e+000 -2.720700e-002 7.093600e-002
      vertex  3.535530e-001 3.802370e-001 1.050216e+000
    endloop
  endfacet
  facet normal 7.895750e-001 3.971663e-001 -4.677930e-001
    outer loop
      vertex  4.619400e-001 2.182650e-001 1.059043e+000
      vertex  0.000000e+000 -2.720700e-002 7.093600e-002
      vertex  4.157350e-001 3.045810e-001 1.054339e+000
    endloop
  endfacet
  facet normal 8.567362e-001 2.352646e-001 -4.589702e-001
    outer loop
      vertex  4.903930e-001 1.246080e-001 1.064147e+000
      vertex  0.000000e+000 -2.720700e-002 7.093600e-002
      vertex  4.619400e-001 2.182650e-001 1.059043e+000
    endloop
  endfacet
  facet normal 8.909771e-001 6.337819e-002 -4.496031e-001
    outer loop
      vertex  5.000000e-001 2.720700e-002 1.069455e+000
      vertex  0.000000e+000 -2.720700e-002 7.093600e-002
      vertex  4.903930e-001 1.246080e-001 1.064147e+000
    endloop
  endfacet
  facet normal 8.909770e-001 -1.118610e-001 -4.400534e-001
    outer loop
      vertex  4.903930e-001 -7.019400e-002 1.074763e+000
      vertex  0.000000e+000 -2.720700e-002 7.093600e-002
      vertex  5.000000e-001 2.720700e-002 1.069455e+000
    endloop
  endfacet
  facet normal 8.567358e-001 -2.837479e-001 -4.306865e-001
    outer loop
      vertex  4.619400e-001 -1.638510e-001 1.079867e+000
      vertex  0.000000e+000 -2.720700e-002 7.093600e-002
      vertex  4.903930e-001 -7.019400e-002 1.074763e+000
    endloop
  endfacet
  facet normal 7.895740e-001 -4.456502e-001 -4.218635e-001
    outer loop
      vertex  4.157350e-001 -2.501660e-001 1.084570e+000
      vertex  0.000000e+000 -2.720700e-002 7.093600e-002
      vertex  4.619400e-001 -1.638510e-001 1.079867e+000
    endloop
  endfacet
  facet normal 6.920639e-001 -5.913677e-001 -4.139224e-001
    outer loop
      vertex  3.535530e-001 -3.258220e-001 1.088693e+000
      vertex  0.000000e+000 -2.720700e-002 7.093600e-002
      vertex  4.157350e-001 -2.501660e-001 1.084570e+000
    endloop
  endfacet
  facet normal 5.679685e-001 -7.152793e-001 -4.071700e-001
    outer loop
      vertex  2.777850e-001 -3.879120e-001 1.092077e+000
      vertex  0.000000e+000 -2.720700e-002 7.093600e-002
      vertex  3.535530e-001 -3.258220e-001 1.088693e+000
    endloop
  endfacet
  facet normal 4.220342e-001 -8.126453e-001 -4.018642e-001
    outer loop
      vertex  1.913420e-001 -4.340480e-001 1.094591e+000
      vertex  0.000000e+000 -2.720700e-002 7.093600e-002
      vertex  2.777850e-001 -3.879120e-001 1.092077e+000
    endloop
  endfacet
  facet normal -8.775225e-002 -9.138978e-001 -3.963464e-001
    outer loop
      vertex  -9.754400e-002 -4.624590e-001 1.096139e+000
      vertex  0.000000e+000 -2.720700e-002 7.093600e-002
      vertex  0.000000e+000 -4.720520e-001 1.096662e+000
    endloop
  endfacet
  facet normal 2.598908e-001 -8.797079e-001 -3.982096e-001
    outer loop
      vertex  9.754500e-002 -4.624590e-001 1.096139e+000
      vertex  0.000000e+000 -2.720700e-002 7.093600e-002
      vertex  1.913420e-001 -4.340480e-001 1.094591e+000
    endloop
  endfacet
  facet normal 6.502182e-006 5.438147e-002 9.985202e-001
    outer loop
      vertex  0.000000e+000 -4.720520e-001 1.096662e+000
      vertex  9.754500e-002 -4.624590e-001 1.096139e+000
      vertex  1.913420e-001 -4.340480e-001 1.094591e+000
    endloop
  endfacet
  facet normal 1.158744e-006 5.440830e-002 9.985188e-001
    outer loop
      vertex  0.000000e+000 -4.720520e-001 1.096662e+000
      vertex  1.913420e-001 -4.340480e-001 1.094591e+000
      vertex  2.777850e-001 -3.879120e-001 1.092077e+000
    endloop
  endfacet
  facet normal -4.116187e-006 5.442567e-002 9.985178e-001
    outer loop
      vertex  0.000000e+000 -4.720520e-001 1.096662e+000
      vertex  2.777850e-001 -3.879120e-001 1.092077e+000
      vertex  3.535530e-001 -3.258220e-001 1.088693e+000
    endloop
  endfacet
  facet normal 1.119269e-007 5.441546e-002 9.985183e-001
    outer loop
      vertex  0.000000e+000 -4.720520e-001 1.096662e+000
      vertex  3.535530e-001 -3.258220e-001 1.088693e+000
      vertex  4.157350e-001 -2.501660e-001 1.084570e+000
    endloop
  endfacet
  facet normal 7.038449e-006 5.440253e-002 9.985191e-001
    outer loop
      vertex  0.000000e+000 -4.720520e-001 1.096662e+000
      vertex  4.157350e-001 -2.501660e-001 1.084570e+000
      vertex  4.619400e-001 -1.638510e-001 1.079867e+000
    endloop
  endfacet
  facet normal -3.046370e-006 5.441760e-002 9.985182e-001
    outer loop
      vertex  0.000000e+000 -4.720520e-001 1.096662e+000
      vertex  4.619400e-001 -1.638510e-001 1.079867e+000
      vertex  4.903930e-001 -7.019400e-002 1.074763e+000
    endloop
  endfacet
  facet normal -7.413425e-007 5.441480e-002 9.985184e-001
    outer loop
      vertex  0.000000e+000 -4.720520e-001 1.096662e+000
      vertex  4.903930e-001 -7.019400e-002 1.074763e+000
      vertex  5.000000e-001 2.720700e-002 1.069455e+000
    endloop
  endfacet
  facet normal -1.703546e-006 5.441577e-002 9.985184e-001
    outer loop
      vertex  0.000000e+000 -4.720520e-001 1.096662e+000
      vertex  5.000000e-001 2.720700e-002 1.069455e+000
      vertex  4.903930e-001 1.246080e-001 1.064147e+000
    endloop
  endfacet
  facet normal -9.165562e-007 5.441512e-002 9.985183e-001
    outer loop
      vertex  0.000000e+000 -4.720520e-001 1.096662e+000
      vertex  4.903930e-001 1.246080e-001 1.064147e+000
      vertex  4.619400e-001 2.182650e-001 1.059043e+000
    endloop
  endfacet
  facet normal -1.814044e-006 5.441571e-002 9.985184e-001
    outer loop
      vertex  0.000000e+000 -4.720520e-001 1.096662e+000
      vertex  4.619400e-001 2.182650e-001 1.059043e+000
      vertex  4.157350e-001 3.045810e-001 1.054339e+000
    endloop
  endfacet
  facet normal -1.772531e-006 5.441570e-002 9.985183e-001
    outer loop
      vertex  0.000000e+000 -4.720520e-001 1.096662e+000
      vertex  4.157350e-001 3.045810e-001 1.054339e+000
      vertex  3.535530e-001 3.802370e-001 1.050216e+000
    endloop
  endfacet
  facet normal 6.534362e-006 5.441224e-002 9.985185e-001
    outer loop
      vertex  0.000000e+000 -4.720520e-001 1.096662e+000
      vertex  3.535530e-001 3.802370e-001 1.050216e+000
      vertex  2.777850e-001 4.423260e-001 1.046833e+000
    endloop
  endfacet
  facet normal 2.267715e-006 5.441354e-002 9.985185e-001
    outer loop
      vertex  0.000000e+000 -4.720520e-001 1.096662e+000
      vertex  2.777850e-001 4.423260e-001 1.046833e+000
      vertex  1.913420e-001 4.884630e-001 1.044319e+000
    endloop
  endfacet
  facet normal 1.401785e-006 5.441371e-002 9.985185e-001
    outer loop
      vertex  0.000000e+000 -4.720520e-001 1.096662e+000
      vertex  1.913420e-001 4.884630e-001 1.044319e+000
      vertex  9.754500e-002 5.168730e-001 1.042771e+000
    endloop
  endfacet
  facet normal -2.062287e-006 5.441406e-002 9.985185e-001
    outer loop
      vertex  0.000000e+000 -4.720520e-001 1.096662e+000
      vertex  9.754500e-002 5.168730e-001 1.042771e+000
      vertex  -0.000000e+000 5.264660e-001 1.042248e+000
    endloop
  endfacet
  facet normal 2.062287e-006 5.441406e-002 9.985185e-001
    outer loop
      vertex  0.000000e+000 -4.720520e-001 1.096662e+000
      vertex  -0.000000e+000 5.264660e-001 1.042248e+000
      vertex  -9.754500e-002 5.168730e-001 1.042771e+000
    endloop
  endfacet
  facet normal -1.985860e-006 5.441365e-002 9.985185e-001
    outer loop
      vertex  0.000000e+000 -4.720520e-001 1.096662e+000
      vertex  -9.754500e-002 5.168730e-001 1.042771e+000
      vertex  -1.913420e-001 4.884620e-001 1.044319e+000
    endloop
  endfacet
  facet normal -1.700791e-006 5.441371e-002 9.985185e-001
    outer loop
      vertex  0.000000e+000 -4.720520e-001 1.096662e+000
      vertex  -1.913420e-001 4.884620e-001 1.044319e+000
      vertex  -2.777850e-001 4.423260e-001 1.046833e+000
    endloop
  endfacet
  facet normal 4.814740e-006 5.441567e-002 9.985183e-001
    outer loop
      vertex  0.000000e+000 -4.720520e-001 1.096662e+000
      vertex  -2.777850e-001 4.423260e-001 1.046833e+000
      vertex  -3.535540e-001 3.802370e-001 1.050217e+000
    endloop
  endfacet
  facet normal -9.282522e-006 5.440989e-002 9.985187e-001
    outer loop
      vertex  0.000000e+000 -4.720520e-001 1.096662e+000
      vertex  -3.535540e-001 3.802370e-001 1.050217e+000
      vertex  -4.157350e-001 3.045800e-001 1.054339e+000
    endloop
  endfacet
  facet normal 2.332358e-006 5.441607e-002 9.985184e-001
    outer loop
      vertex  0.000000e+000 -4.720520e-001 1.096662e+000
      vertex  -4.157350e-001 3.045800e-001 1.054339e+000
      vertex  -4.619400e-001 2.182650e-001 1.059043e+000
    endloop
  endfacet
  facet normal 3.252273e-007 5.441473e-002 9.985184e-001
    outer loop
      vertex  0.000000e+000 -4.720520e-001 1.096662e+000
      vertex  -4.619400e-001 2.182650e-001 1.059043e+000
      vertex  -4.903930e-001 1.246070e-001 1.064147e+000
    endloop
  endfacet
  facet normal 2.225060e-006 5.441628e-002 9.985183e-001
    outer loop
      vertex  0.000000e+000 -4.720520e-001 1.096662e+000
      vertex  -4.903930e-001 1.246070e-001 1.064147e+000
      vertex  -5.000000e-001 2.720700e-002 1.069455e+000
    endloop
  endfacet
  facet normal 7.413425e-007 5.441480e-002 9.985184e-001
    outer loop
      vertex  0.000000e+000 -4.720520e-001 1.096662e+000
      vertex  -5.000000e-001 2.720700e-002 1.069455e+000
      vertex  -4.903930e-001 -7.019400e-002 1.074763e+000
    endloop
  endfacet
  facet normal 2.412798e-006 5.441683e-002 9.985183e-001
    outer loop
      vertex  0.000000e+000 -4.720520e-001 1.096662e+000
      vertex  -4.903930e-001 -7.019400e-002 1.074763e+000
      vertex  -4.619400e-001 -1.638520e-001 1.079867e+000
    endloop
  endfacet
  facet normal -7.228998e-006 5.440245e-002 9.985191e-001
    outer loop
      vertex  0.000000e+000 -4.720520e-001 1.096662e+000
      vertex  -4.619400e-001 -1.638520e-001 1.079867e+000
      vertex  -4.157340e-001 -2.501670e-001 1.084570e+000
    endloop
  endfacet
  facet normal -3.489444e-007 5.441528e-002 9.985183e-001
    outer loop
      vertex  0.000000e+000 -4.720520e-001 1.096662e+000
      vertex  -4.157340e-001 -2.501670e-001 1.084570e+000
      vertex  -3.535530e-001 -3.258230e-001 1.088693e+000
    endloop
  endfacet
  facet normal 4.543961e-006 5.442709e-002 9.985178e-001
    outer loop
      vertex  0.000000e+000 -4.720520e-001 1.096662e+000
      vertex  -3.535530e-001 -3.258230e-001 1.088693e+000
      vertex  -2.777850e-001 -3.879120e-001 1.092077e+000
    endloop
  endfacet
  facet normal -1.997582e-006 5.440553e-002 9.985189e-001
    outer loop
      vertex  0.000000e+000 -4.720520e-001 1.096662e+000
      vertex  -2.777850e-001 -3.879120e-001 1.092077e+000
      vertex  -1.913410e-001 -4.340490e-001 1.094591e+000
    endloop
  endfacet
  facet normal -6.220195e-006 5.438434e-002 9.985201e-001
    outer loop
      vertex  0.000000e+000 -4.720520e-001 1.096662e+000
      vertex  -1.913410e-001 -4.340490e-001 1.094591e+000
      vertex  -9.754400e-002 -4.624590e-001 1.096139e+000
    endloop
  endfacet
  facet normal -1.000000e+000 0.000000e+000 -0.000000e+000
    outer loop
      vertex  -4.322310e-001 3.740160e-001 5.810810e-001
      vertex  -4.322310e-001 3.740160e-001 -5.810810e-001
      vertex  -4.322310e-001 -3.740160e-001 -5.810810e-001
    endloop
  endfacet
  facet normal -1.000000e+000 -0.000000e+000 0.000000e+000
    outer loop
      vertex  -4.322310e-001 3.740160e-001 5.810810e-001
      vertex  -4.322310e-001 -3.740160e-001 -5.810810e-001
      vertex  -4.322310e-001 -3.740160e-001 5.810810e-001
    endloop
  endfacet
  facet normal 0.000000e+000 0.000000e+000 1.000000e+000
    outer loop
      vertex  -4.322310e-001 3.740160e-001 5.810810e-001
      vertex  -4.322310e-001 -3.740160e-001 5.810810e-001
      vertex  -2.335700e-001 -9.629900e-002 5.810810e-001
    endloop
  endfacet
  facet normal 0.000000e+000 0.000000e+000 1.000000e+000
    outer loop
      vertex  -4.322310e-001 3.740160e-001 5.810810e-001
      vertex  -2.335700e-001 -9.629900e-002 5.810810e-001
      vertex  -2.492180e-001 -4.905300e-002 5.810810e-001
    endloop
  endfacet
  facet normal 0.000000e+000 0.000000e+000 1.000000e+000
    outer loop
      vertex  -4.322310e-001 3.740160e-001 5.810810e-001
      vertex  -2.492180e-001 -4.905300e-002 5.810810e-001
      vertex  -2.554510e-001 5.930000e-004 5.810810e-001
    endloop
  endfacet
  facet normal 0.000000e+000 0.000000e+000 1.000000e+000
    outer loop
      vertex  -4.322310e-001 3.740160e-001 5.810810e-001
      vertex  -2.554510e-001 5.930000e-004 5.810810e-001
      vertex  -2.518810e-001 5.077000e-002 5.810810e-001
    endloop
  endfacet
  facet normal 0.000000e+000 0.000000e+000 1.000000e+000
    outer loop
      vertex  -4.322310e-001 3.740160e-001 5.810810e-001
      vertex  -2.518810e-001 5.077000e-002 5.810810e-001
      vertex  -2.384930e-001 9.952600e-002 5.810810e-001
    endloop
  endfacet
  facet normal 0.000000e+000 0.000000e+000 1.000000e+000
    outer loop
      vertex  -4.322310e-001 3.740160e-001 5.810810e-001
      vertex  -2.384930e-001 9.952600e-002 5.810810e-001
      vertex  -2.156640e-001 1.449090e-001 5.810810e-001
    endloop
  endfacet
  facet normal 0.000000e+000 0.000000e+000 1.000000e+000
    outer loop
      vertex  -4.322310e-001 3.740160e-001 5.810810e-001
      vertex  -2.156640e-001 1.449090e-001 5.810810e-001
      vertex  -1.841800e-001 1.850460e-001 5.810810e-001
    endloop
  endfacet
  facet normal 0.000000e+000 0.000000e+000 1.000000e+000
    outer loop
      vertex  -4.322310e-001 3.740160e-001 5.810810e-001
      vertex  -1.841800e-001 1.850460e-001 5.810810e-001
      vertex  -1.452110e-001 2.182390e-001 5.810810e-001
    endloop
  endfacet
  facet normal 0.000000e+000 0.000000e+000 1.000000e+000
    outer loop
      vertex  -4.322310e-001 3.740160e-001 5.810810e-001
      vertex  -1.452110e-001 2.182390e-001 5.810810e-001
      vertex  -1.002810e-001 2.430530e-001 5.810810e-001
    endloop
  endfacet
  facet normal 0.000000e+000 0.000000e+000 1.000000e+000
    outer loop
      vertex  -4.322310e-001 3.740160e-001 5.810810e-001
      vertex  -1.002810e-001 2.430530e-001 5.810810e-001
      vertex  -5.120400e-002 2.583970e-001 5.810810e-001
    endloop
  endfacet
  facet normal -0.000000e+000 0.000000e+000 1.000000e+000
    outer loop
      vertex  -4.322310e-001 3.740160e-001 5.810810e-001
      vertex  -5.120400e-002 2.583970e-001 5.810810e-001
      vertex  4.322310e-001 3.740160e-001 5.810810e-001
    endloop
  endfacet
  facet normal 0.000000e+000 0.000000e+000 1.000000e+000
    outer loop
      vertex  -4.853800e-002 -2.437900e-001 5.810810e-001
      vertex  -9.535600e-002 -2.299590e-001 5.810810e-001
      vertex  -4.322310e-001 -3.740160e-001 5.810810e-001
    endloop
  endfacet
  facet normal 0.000000e+000 0.000000e+000 1.000000e+000
    outer loop
      vertex  -4.853800e-002 -2.437900e-001 5.810810e-001
      vertex  -4.322310e-001 -3.740160e-001 5.810810e-001
      vertex  4.322310e-001 -3.740160e-001 5.810810e-001
    endloop
  endfacet
  facet normal 0.000000e+000 0.000000e+000 1.000000e+000
    outer loop
      vertex  -4.853800e-002 -2.437900e-001 5.810810e-001
      vertex  4.322310e-001 -3.740160e-001 5.810810e-001
      vertex  0.000000e+000 -2.484510e-001 5.810810e-001
    endloop
  endfacet
  facet normal 0.000000e+000 0.000000e+000 1.000000e+000
    outer loop
      vertex  -4.322310e-001 -3.740160e-001 5.810810e-001
      vertex  -9.535600e-002 -2.299590e-001 5.810810e-001
      vertex  -1.387770e-001 -2.074090e-001 5.810810e-001
    endloop
  endfacet
  facet normal 0.000000e+000 0.000000e+000 1.000000e+000
    outer loop
      vertex  -4.322310e-001 -3.740160e-001 5.810810e-001
      vertex  -1.387770e-001 -2.074090e-001 5.810810e-001
      vertex  -1.772160e-001 -1.768870e-001 5.810810e-001
    endloop
  endfacet
  facet normal 0.000000e+000 0.000000e+000 1.000000e+000
    outer loop
      vertex  -4.322310e-001 -3.740160e-001 5.810810e-001
      vertex  -1.772160e-001 -1.768870e-001 5.810810e-001
      vertex  -2.092320e-001 -1.394190e-001 5.810810e-001
    endloop
  endfacet
  facet normal 0.000000e+000 0.000000e+000 1.000000e+000
    outer loop
      vertex  -4.322310e-001 -3.740160e-001 5.810810e-001
      vertex  -2.092320e-001 -1.394190e-001 5.810810e-001
      vertex  -2.335700e-001 -9.629900e-002 5.810810e-001
    endloop
  endfacet
  facet normal 0.000000e+000 0.000000e+000 1.000000e+000
    outer loop
      vertex  4.322310e-001 3.740160e-001 5.810810e-001
      vertex  -5.120400e-002 2.583970e-001 5.810810e-001
      vertex  -0.000000e+000 2.635890e-001 5.810810e-001
    endloop
  endfacet
  facet normal 0.000000e+000 0.000000e+000 1.000000e+000
    outer loop
      vertex  4.322310e-001 3.740160e-001 5.810810e-001
      vertex  -0.000000e+000 2.635890e-001 5.810810e-001
      vertex  5.120400e-002 2.583970e-001 5.810810e-001
    endloop
  endfacet
  facet normal 0.000000e+000 0.000000e+000 1.000000e+000
    outer loop
      vertex  4.322310e-001 3.740160e-001 5.810810e-001
      vertex  5.120400e-002 2.583970e-001 5.810810e-001
      vertex  1.002810e-001 2.430530e-001 5.810810e-001
    endloop
  endfacet
  facet normal 0.000000e+000 0.000000e+000 1.000000e+000
    outer loop
      vertex  4.322310e-001 3.740160e-001 5.810810e-001
      vertex  1.002810e-001 2.430530e-001 5.810810e-001
      vertex  1.452110e-001 2.182390e-001 5.810810e-001
    endloop
  endfacet
  facet normal 0.000000e+000 0.000000e+000 1.000000e+000
    outer loop
      vertex  4.322310e-001 3.740160e-001 5.810810e-001
      vertex  1.452110e-001 2.182390e-001 5.810810e-001
      vertex  1.841800e-001 1.850460e-001 5.810810e-001
    endloop
  endfacet
  facet normal 0.000000e+000 0.000000e+000 1.000000e+000
    outer loop
      vertex  4.322310e-001 3.740160e-001 5.810810e-001
      vertex  1.841800e-001 1.850460e-001 5.810810e-001
      vertex  2.156640e-001 1.449090e-001 5.810810e-001
    endloop
  endfacet
  facet normal 0.000000e+000 0.000000e+000 1.000000e+000
    outer loop
      vertex  4.322310e-001 3.740160e-001 5.810810e-001
      vertex  2.156640e-001 1.449090e-001 5.810810e-001
      vertex  2.384930e-001 9.952700e-002 5.810810e-001
    endloop
  endfacet
  facet normal 0.000000e+000 0.000000e+000 1.000000e+000
    outer loop
      vertex  4.322310e-001 3.740160e-001 5.810810e-001
      vertex  2.384930e-001 9.952700e-002 5.810810e-001
      vertex  2.518810e-001 5.077000e-002 5.810810e-001
    endloop
  endfacet
  facet normal 0.000000e+000 0.000000e+000 1.000000e+000
    outer loop
      vertex  4.322310e-001 3.740160e-001 5.810810e-001
      vertex  2.518810e-001 5.077000e-002 5.810810e-001
      vertex  2.554510e-001 5.930000e-004 5.810810e-001
    endloop
  endfacet
  facet normal 0.000000e+000 0.000000e+000 1.000000e+000
    outer loop
      vertex  4.322310e-001 3.740160e-001 5.810810e-001
      vertex  2.554510e-001 5.930000e-004 5.810810e-001
      vertex  4.322310e-001 -3.740160e-001 5.810810e-001
    endloop
  endfacet
  facet normal 0.000000e+000 0.000000e+000 1.000000e+000
    outer loop
      vertex  4.322310e-001 -3.740160e-001 5.810810e-001
      vertex  2.554510e-001 5.930000e-004 5.810810e-001
      vertex  2.492180e-001 -4.905300e-002 5.810810e-001
    endloop
  endfacet
  facet normal 0.000000e+000 0.000000e+000 1.000000e+000
    outer loop
      vertex  4.322310e-001 -3.740160e-001 5.810810e-001
      vertex  2.492180e-001 -4.905300e-002 5.810810e-001
      vertex  2.335700e-001 -9.629800e-002 5.810810e-001
    endloop
  endfacet
  facet normal 0.000000e+000 0.000000e+000 1.000000e+000
    outer loop
      vertex  4.322310e-001 -3.740160e-001 5.810810e-001
      vertex  2.335700e-001 -9.629800e-002 5.810810e-001
      vertex  2.092320e-001 -1.394190e-001 5.810810e-001
    endloop
  endfacet
  facet normal 0.000000e+000 0.000000e+000 1.000000e+000
    outer loop
      vertex  4.322310e-001 -3.740160e-001 5.810810e-001
      vertex  2.092320e-001 -1.394190e-001 5.810810e-001
      vertex  1.772170e-001 -1.768860e-001 5.810810e-001
    endloop
  endfacet
  facet normal 0.000000e+000 0.000000e+000 1.000000e+000
    outer loop
      vertex  4.322310e-001 -3.740160e-001 5.810810e-001
      vertex  1.772170e-001 -1.768860e-001 5.810810e-001
      vertex  1.387770e-001 -2.074090e-001 5.810810e-001
    endloop
  endfacet
  facet normal 0.000000e+000 0.000000e+000 1.000000e+000
    outer loop
      vertex  4.322310e-001 -3.740160e-001 5.810810e-001
      vertex  1.387770e-001 -2.074090e-001 5.810810e-001
      vertex  9.535600e-002 -2.299590e-001 5.810810e-001
    endloop
  endfacet
  facet normal 0.000000e+000 0.000000e+000 1.000000e+000
    outer loop
      vertex  4.322310e-001 -3.740160e-001 5.810810e-001
      vertex  9.535600e-002 -2.299590e-001 5.810810e-001
      vertex  4.853900e-002 -2.437900e-001 5.810810e-001
    endloop
  endfacet
  facet normal 0.000000e+000 0.000000e+000 1.000000e+000
    outer loop
      vertex  4.322310e-001 -3.740160e-001 5.810810e-001
      vertex  4.853900e-002 -2.437900e-001 5.810810e-001
      vertex  0.000000e+000 -2.484510e-001 5.810810e-001
    endloop
  endfacet
  facet normal 0.000000e+000 1.000000e+000 0.000000e+000
    outer loop
      vertex  4.322310e-001 3.740160e-001 5.810810e-001
      vertex  4.322310e-001 3.740160e-001 -5.810810e-001
      vertex  -4.322310e-001 3.740160e-001 -5.810810e-001
    endloop
  endfacet
  facet normal 0.000000e+000 1.000000e+000 0.000000e+000
    outer loop
      vertex  4.322310e-001 3.740160e-001 5.810810e-001
      vertex  -4.322310e-001 3.740160e-001 -5.810810e-001
      vertex  -4.322310e-001 3.740160e-001 5.810810e-001
    endloop
  endfacet
  facet normal 0.000000e+000 0.000000e+000 -1.000000e+000
    outer loop
      vertex  -4.322310e-001 3.740160e-001 -5.810810e-001
      vertex  4.322310e-001 3.740160e-001 -5.810810e-001
      vertex  4.322310e-001 -3.740160e-001 -5.810810e-001
    endloop
  endfacet
  facet normal 0.000000e+000 0.000000e+000 -1.000000e+000
    outer loop
      vertex  -4.322310e-001 3.740160e-001 -5.810810e-001
      vertex  4.322310e-001 -3.740160e-001 -5.810810e-001
      vertex  -4.322310e-001 -3.740160e-001 -5.810810e-001
    endloop
  endfacet
  facet normal 0.000000e+000 -1.000000e+000 0.000000e+000
    outer loop
      vertex  -4.322310e-001 -3.740160e-001 5.810810e-001
      vertex  -4.322310e-001 -3.740160e-001 -5.810810e-001
      vertex  4.322310e-001 -3.740160e-001 -5.810810e-001
    endloop
  endfacet
  facet normal 0.000000e+000 -1.000000e+000 0.000000e+000
    outer loop
      vertex  -4.322310e-001 -3.740160e-001 5.810810e-001
      vertex  4.322310e-001 -3.740160e-001 -5.810810e-001
      vertex  4.322310e-001 -3.740160e-001 5.810810e-001
    endloop
  endfacet
  facet normal 1.000000e+000 0.000000e+000 -0.000000e+000
    outer loop
      vertex  4.322310e-001 3.740160e-001 -5.810810e-001
      vertex  4.322310e-001 3.740160e-001 5.810810e-001
      vertex  4.322310e-001 -3.740160e-001 5.810810e-001
    endloop
  endfacet
  facet normal 1.000000e+000 0.000000e+000 0.000000e+000
    outer loop
      vertex  4.322310e-001 3.740160e-001 -5.810810e-001
      vertex  4.322310e-001 -3.740160e-001 5.810810e-001
      vertex  4.322310e-001 -3.740160e-001 -5.810810e-001
    endloop
  endfacet
  facet normal -2.598820e-001 -8.797103e-001 -3.982098e-001
    outer loop
      vertex  -4.853800e-002 -2.437900e-001 5.810810e-001
      vertex  -9.754400e-002 -4.624590e-001 1.096139e+000
      vertex  -1.913410e-001 -4.340490e-001 1.094591e+000
    endloop
  endfacet
  facet normal -2.598844e-001 -8.797095e-001 -3.982102e-001
    outer loop
      vertex  -4.853800e-002 -2.437900e-001 5.810810e-001
      vertex  -1.913410e-001 -4.340490e-001 1.094591e+000
      vertex  -9.535600e-002 -2.299590e-001 5.810810e-001
    endloop
  endfacet
  facet normal -8.775215e-002 -9.138979e-001 -3.963460e-001
    outer loop
      vertex  0.000000e+000 -2.484510e-001 5.810810e-001
      vertex  0.000000e+000 -4.720520e-001 1.096662e+000
      vertex  -9.754400e-002 -4.624590e-001 1.096139e+000
    endloop
  endfacet
  facet normal -8.775944e-002 -9.138969e-001 -3.963469e-001
    outer loop
      vertex  0.000000e+000 -2.484510e-001 5.810810e-001
      vertex  -9.754400e-002 -4.624590e-001 1.096139e+000
      vertex  -4.853800e-002 -2.437900e-001 5.810810e-001
    endloop
  endfacet
  facet normal 6.502182e-006 5.438147e-002 9.985202e-001
    outer loop
      vertex  0.000000e+000 -4.720520e-001 1.096662e+000
      vertex  9.754500e-002 -4.624590e-001 1.096139e+000
      vertex  1.913420e-001 -4.340480e-001 1.094591e+000
    endloop
  endfacet
  facet normal 1.158744e-006 5.440830e-002 9.985188e-001
    outer loop
      vertex  0.000000e+000 -4.720520e-001 1.096662e+000
      vertex  1.913420e-001 -4.340480e-001 1.094591e+000
      vertex  2.777850e-001 -3.879120e-001 1.092077e+000
    endloop
  endfacet
  facet normal -4.116187e-006 5.442567e-002 9.985178e-001
    outer loop
      vertex  0.000000e+000 -4.720520e-001 1.096662e+000
      vertex  2.777850e-001 -3.879120e-001 1.092077e+000
      vertex  3.535530e-001 -3.258220e-001 1.088693e+000
    endloop
  endfacet
  facet normal 1.119269e-007 5.441546e-002 9.985183e-001
    outer loop
      vertex  0.000000e+000 -4.720520e-001 1.096662e+000
      vertex  3.535530e-001 -3.258220e-001 1.088693e+000
      vertex  4.157350e-001 -2.501660e-001 1.084570e+000
    endloop
  endfacet
  facet normal 7.038449e-006 5.440253e-002 9.985191e-001
    outer loop
      vertex  0.000000e+000 -4.720520e-001 1.096662e+000
      vertex  4.157350e-001 -2.501660e-001 1.084570e+000
      vertex  4.619400e-001 -1.638510e-001 1.079867e+000
    endloop
  endfacet
  facet normal -3.046370e-006 5.441760e-002 9.985182e-001
    outer loop
      vertex  0.000000e+000 -4.720520e-001 1.096662e+000
      vertex  4.619400e-001 -1.638510e-001 1.079867e+000
      vertex  4.903930e-001 -7.019400e-002 1.074763e+000
    endloop
  endfacet
  facet normal -7.413425e-007 5.441480e-002 9.985184e-001
    outer loop
      vertex  0.000000e+000 -4.720520e-001 1.096662e+000
      vertex  4.903930e-001 -7.019400e-002 1.074763e+000
      vertex  5.000000e-001 2.720700e-002 1.069455e+000
    endloop
  endfacet
  facet normal -1.703546e-006 5.441577e-002 9.985184e-001
    outer loop
      vertex  0.000000e+000 -4.720520e-001 1.096662e+000
      vertex  5.000000e-001 2.720700e-002 1.069455e+000
      vertex  4.903930e-001 1.246080e-001 1.064147e+000
    endloop
  endfacet
  facet normal -9.165562e-007 5.441512e-002 9.985183e-001
    outer loop
      vertex  0.000000e+000 -4.720520e-001 1.096662e+000
      vertex  4.903930e-001 1.246080e-001 1.064147e+000
      vertex  4.619400e-001 2.182650e-001 1.059043e+000
    endloop
  endfacet
  facet normal -1.814044e-006 5.441571e-002 9.985184e-001
    outer loop
      vertex  0.000000e+000 -4.720520e-001 1.096662e+000
      vertex  4.619400e-001 2.182650e-001 1.059043e+000
      vertex  4.157350e-001 3.045810e-001 1.054339e+000
    endloop
  endfacet
  facet normal -1.772531e-006 5.441570e-002 9.985183e-001
    outer loop
      vertex  0.000000e+000 -4.720520e-001 1.096662e+000
      vertex  4.157350e-001 3.045810e-001 1.054339e+000
      vertex  3.535530e-001 3.802370e-001 1.050216e+000
    endloop
  endfacet
  facet normal 6.534362e-006 5.441224e-002 9.985185e-001
    outer loop
      vertex  0.000000e+000 -4.720520e-001 1.096662e+000
      vertex  3.535530e-001 3.802370e-001 1.050216e+000
      vertex  2.777850e-001 4.423260e-001 1.046833e+000
    endloop
  endfacet
  facet normal 2.267715e-006 5.441354e-002 9.985185e-001
    outer loop
      vertex  0.000000e+000 -4.720520e-001 1.096662e+000
      vertex  2.777850e-001 4.423260e-001 1.046833e+000
      vertex  1.913420e-001 4.884630e-001 1.044319e+000
    endloop
  endfacet
  facet normal 1.401785e-006 5.441371e-002 9.985185e-001
    outer loop
      vertex  0.000000e+000 -4.720520e-001 1.096662e+000
      vertex  1.913420e-001 4.884630e-001 1.044319e+000
      vertex  9.754500e-002 5.168730e-001 1.042771e+000
    endloop
  endfacet
  facet normal -2.062287e-006 5.441406e-002 9.985185e-001
    outer loop
      vertex  0.000000e+000 -4.720520e-001 1.096662e+000
      vertex  9.754500e-002 5.168730e-001 1.042771e+000
      vertex  -0.000000e+000 5.264660e-001 1.042248e+000
    endloop
  endfacet
  facet normal 2.062287e-006 5.441406e-002 9.985185e-001
    outer loop
      vertex  0.000000e+000 -4.720520e-001 1.096662e+000
      vertex  -0.000000e+000 5.264660e-001 1.042248e+000
      vertex  -9.754500e-002 5.168730e-001 1.042771e+000
    endloop
  endfacet
  facet normal -1.985860e-006 5.441365e-002 9.985185e-001
    outer loop
      vertex  0.000000e+000 -4.720520e-001 1.096662e+000
      vertex  -9.754500e-002 5.168730e-001 1.042771e+000
      vertex  -1.913420e-001 4.884620e-001 1.044319e+000
    endloop
  endfacet
  facet normal -1.700791e-006 5.441371e-002 9.985185e-001
    outer loop
      vertex  0.000000e+000 -4.720520e-001 1.096662e+000
      vertex  -1.913420e-001 4.884620e-001 1.044319e+000
      vertex  -2.777850e-001 4.423260e-001 1.046833e+000
    endloop
  endfacet
  facet normal 4.212884e-006 5.441549e-002 9.985183e-001
    outer loop
      vertex  0.000000e+000 -4.720520e-001 1.096662e+000
      vertex  -2.777850e-001 4.423260e-001 1.046833e+000
      vertex  -3.535540e-001 3.802360e-001 1.050217e+000
    endloop
  endfacet
  facet normal -8.722817e-006 5.441017e-002 9.985187e-001
    outer loop
      vertex  0.000000e+000 -4.720520e-001 1.096662e+000
      vertex  -3.535540e-001 3.802360e-001 1.050217e+000
      vertex  -4.157350e-001 3.045800e-001 1.054339e+000
    endloop
  endfacet
  facet normal 2.332358e-006 5.441607e-002 9.985184e-001
    outer loop
      vertex  0.000000e+000 -4.720520e-001 1.096662e+000
      vertex  -4.157350e-001 3.045800e-001 1.054339e+000
      vertex  -4.619400e-001 2.182650e-001 1.059043e+000
    endloop
  endfacet
  facet normal 3.252273e-007 5.441473e-002 9.985184e-001
    outer loop
      vertex  0.000000e+000 -4.720520e-001 1.096662e+000
      vertex  -4.619400e-001 2.182650e-001 1.059043e+000
      vertex  -4.903930e-001 1.246070e-001 1.064147e+000
    endloop
  endfacet
  facet normal 2.225060e-006 5.441628e-002 9.985183e-001
    outer loop
      vertex  0.000000e+000 -4.720520e-001 1.096662e+000
      vertex  -4.903930e-001 1.246070e-001 1.064147e+000
      vertex  -5.000000e-001 2.720700e-002 1.069455e+000
    endloop
  endfacet
  facet normal 7.413425e-007 5.441480e-002 9.985184e-001
    outer loop
      vertex  0.000000e+000 -4.720520e-001 1.096662e+000
      vertex  -5.000000e-001 2.720700e-002 1.069455e+000
      vertex  -4.903930e-001 -7.019400e-002 1.074763e+000
    endloop
  endfacet
  facet normal 2.412798e-006 5.441683e-002 9.985183e-001
    outer loop
      vertex  0.000000e+000 -4.720520e-001 1.096662e+000
      vertex  -4.903930e-001 -7.019400e-002 1.074763e+000
      vertex  -4.619400e-001 -1.638520e-001 1.079867e+000
    endloop
  endfacet
  facet normal -7.228998e-006 5.440245e-002 9.985191e-001
    outer loop
      vertex  0.000000e+000 -4.720520e-001 1.096662e+000
      vertex  -4.619400e-001 -1.638520e-001 1.079867e+000
      vertex  -4.157340e-001 -2.501670e-001 1.084570e+000
    endloop
  endfacet
  facet normal -3.489444e-007 5.441528e-002 9.985183e-001
    outer loop
      vertex  0.000000e+000 -4.720520e-001 1.096662e+000
      vertex  -4.157340e-001 -2.501670e-001 1.084570e+000
      vertex  -3.535530e-001 -3.258230e-001 1.088693e+000
    endloop
  endfacet
  facet normal 4.543961e-006 5.442709e-002 9.985178e-001
    outer loop
      vertex  0.000000e+000 -4.720520e-001 1.096662e+000
      vertex  -3.535530e-001 -3.258230e-001 1.088693e+000
      vertex  -2.777850e-001 -3.879120e-001 1.092077e+000
    endloop
  endfacet
  facet normal -1.997582e-006 5.440553e-002 9.985189e-001
    outer loop
      vertex  0.000000e+000 -4.720520e-001 1.096662e+000
      vertex  -2.777850e-001 -3.879120e-001 1.092077e+000
      vertex  -1.913410e-001 -4.340490e-001 1.094591e+000
    endloop
  endfacet
  facet normal -6.220195e-006 5.438434e-002 9.985201e-001
    outer loop
      vertex  0.000000e+000 -4.720520e-001 1.096662e+000
      vertex  -1.913410e-001 -4.340490e-001 1.094591e+000
      vertex  -9.754400e-002 -4.624590e-001 1.096139e+000
    endloop
  endfacet
  facet normal -4.220378e-001 -8.126431e-001 -4.018648e-001
    outer loop
      vertex  -9.535600e-002 -2.299590e-001 5.810810e-001
      vertex  -1.913410e-001 -4.340490e-001 1.094591e+000
      vertex  -2.777850e-001 -3.879120e-001 1.092077e+000
    endloop
  endfacet
  facet normal -4.220343e-001 -8.126452e-001 -4.018643e-001
    outer loop
      vertex  -9.535600e-002 -2.299590e-001 5.810810e-001
      vertex  -2.777850e-001 -3.879120e-001 1.092077e+000
      vertex  -1.387770e-001 -2.074090e-001 5.810810e-001
    endloop
  endfacet
  facet normal 8.775127e-002 -9.138978e-001 -3.963466e-001
    outer loop
      vertex  4.853900e-002 -2.437900e-001 5.810810e-001
      vertex  9.754500e-002 -4.624590e-001 1.096139e+000
      vertex  0.000000e+000 -4.720520e-001 1.096662e+000
    endloop
  endfacet
  facet normal 8.775768e-002 -9.138974e-001 -3.963458e-001
    outer loop
      vertex  4.853900e-002 -2.437900e-001 5.810810e-001
      vertex  0.000000e+000 -4.720520e-001 1.096662e+000
      vertex  0.000000e+000 -2.484510e-001 5.810810e-001
    endloop
  endfacet
  facet normal 2.598907e-001 -8.797079e-001 -3.982095e-001
    outer loop
      vertex  9.535600e-002 -2.299590e-001 5.810810e-001
      vertex  1.913420e-001 -4.340480e-001 1.094591e+000
      vertex  9.754500e-002 -4.624590e-001 1.096139e+000
    endloop
  endfacet
  facet normal 2.598895e-001 -8.797082e-001 -3.982096e-001
    outer loop
      vertex  9.535600e-002 -2.299590e-001 5.810810e-001
      vertex  9.754500e-002 -4.624590e-001 1.096139e+000
      vertex  4.853900e-002 -2.437900e-001 5.810810e-001
    endloop
  endfacet
  facet normal 4.220341e-001 -8.126453e-001 -4.018642e-001
    outer loop
      vertex  1.387770e-001 -2.074090e-001 5.810810e-001
      vertex  2.777850e-001 -3.879120e-001 1.092077e+000
      vertex  1.913420e-001 -4.340480e-001 1.094591e+000
    endloop
  endfacet
  facet normal 4.220343e-001 -8.126452e-001 -4.018643e-001
    outer loop
      vertex  1.387770e-001 -2.074090e-001 5.810810e-001
      vertex  1.913420e-001 -4.340480e-001 1.094591e+000
      vertex  9.535600e-002 -2.299590e-001 5.810810e-001
    endloop
  endfacet
  facet normal 5.679686e-001 -7.152793e-001 -4.071695e-001
    outer loop
      vertex  1.772170e-001 -1.768860e-001 5.810810e-001
      vertex  3.535530e-001 -3.258220e-001 1.088693e+000
      vertex  2.777850e-001 -3.879120e-001 1.092077e+000
    endloop
  endfacet
  facet normal 5.679645e-001 -7.152825e-001 -4.071700e-001
    outer loop
      vertex  1.772170e-001 -1.768860e-001 5.810810e-001
      vertex  2.777850e-001 -3.879120e-001 1.092077e+000
      vertex  1.387770e-001 -2.074090e-001 5.810810e-001
    endloop
  endfacet
  facet normal 6.920639e-001 -5.913677e-001 -4.139225e-001
    outer loop
      vertex  2.092320e-001 -1.394190e-001 5.810810e-001
      vertex  4.157350e-001 -2.501660e-001 1.084570e+000
      vertex  3.535530e-001 -3.258220e-001 1.088693e+000
    endloop
  endfacet
  facet normal 6.920687e-001 -5.913624e-001 -4.139220e-001
    outer loop
      vertex  2.092320e-001 -1.394190e-001 5.810810e-001
      vertex  3.535530e-001 -3.258220e-001 1.088693e+000
      vertex  1.772170e-001 -1.768860e-001 5.810810e-001
    endloop
  endfacet
  facet normal 7.895737e-001 -4.456501e-001 -4.218641e-001
    outer loop
      vertex  2.335700e-001 -9.629800e-002 5.810810e-001
      vertex  4.619400e-001 -1.638510e-001 1.079867e+000
      vertex  4.157350e-001 -2.501660e-001 1.084570e+000
    endloop
  endfacet
  facet normal 7.895762e-001 -4.456459e-001 -4.218638e-001
    outer loop
      vertex  2.335700e-001 -9.629800e-002 5.810810e-001
      vertex  4.157350e-001 -2.501660e-001 1.084570e+000
      vertex  2.092320e-001 -1.394190e-001 5.810810e-001
    endloop
  endfacet
  facet normal 8.567359e-001 -2.837480e-001 -4.306862e-001
    outer loop
      vertex  2.492180e-001 -4.905300e-002 5.810810e-001
      vertex  4.903930e-001 -7.019400e-002 1.074763e+000
      vertex  4.619400e-001 -1.638510e-001 1.079867e+000
    endloop
  endfacet
  facet normal 8.567322e-001 -2.837581e-001 -4.306870e-001
    outer loop
      vertex  2.492180e-001 -4.905300e-002 5.810810e-001
      vertex  4.619400e-001 -1.638510e-001 1.079867e+000
      vertex  2.335700e-001 -9.629800e-002 5.810810e-001
    endloop
  endfacet
  facet normal 8.909772e-001 -1.118609e-001 -4.400531e-001
    outer loop
      vertex  2.554510e-001 5.930000e-004 5.810810e-001
      vertex  5.000000e-001 2.720700e-002 1.069455e+000
      vertex  4.903930e-001 -7.019400e-002 1.074763e+000
    endloop
  endfacet
  facet normal 8.909772e-001 -1.118611e-001 -4.400531e-001
    outer loop
      vertex  2.554510e-001 5.930000e-004 5.810810e-001
      vertex  4.903930e-001 -7.019400e-002 1.074763e+000
      vertex  2.492180e-001 -4.905300e-002 5.810810e-001
    endloop
  endfacet
  facet normal 8.909767e-001 6.337807e-002 -4.496039e-001
    outer loop
      vertex  2.518810e-001 5.077000e-002 5.810810e-001
      vertex  4.903930e-001 1.246080e-001 1.064147e+000
      vertex  5.000000e-001 2.720700e-002 1.069455e+000
    endloop
  endfacet
  facet normal 8.909763e-001 6.339113e-002 -4.496030e-001
    outer loop
      vertex  2.518810e-001 5.077000e-002 5.810810e-001
      vertex  5.000000e-001 2.720700e-002 1.069455e+000
      vertex  2.554510e-001 5.930000e-004 5.810810e-001
    endloop
  endfacet
  facet normal 8.567365e-001 2.352647e-001 -4.589696e-001
    outer loop
      vertex  2.384930e-001 9.952700e-002 5.810810e-001
      vertex  4.619400e-001 2.182650e-001 1.059043e+000
      vertex  4.903930e-001 1.246080e-001 1.064147e+000
    endloop
  endfacet
  facet normal 8.567402e-001 2.352492e-001 -4.589707e-001
    outer loop
      vertex  2.384930e-001 9.952700e-002 5.810810e-001
      vertex  4.903930e-001 1.246080e-001 1.064147e+000
      vertex  2.518810e-001 5.077000e-002 5.810810e-001
    endloop
  endfacet
  facet normal 7.895746e-001 3.971660e-001 -4.677940e-001
    outer loop
      vertex  2.156640e-001 1.449090e-001 5.810810e-001
      vertex  4.157350e-001 3.045810e-001 1.054339e+000
      vertex  4.619400e-001 2.182650e-001 1.059043e+000
    endloop
  endfacet
  facet normal 7.895663e-001 3.971841e-001 -4.677925e-001
    outer loop
      vertex  2.156640e-001 1.449090e-001 5.810810e-001
      vertex  4.619400e-001 2.182650e-001 1.059043e+000
      vertex  2.384930e-001 9.952700e-002 5.810810e-001
    endloop
  endfacet
  facet normal 6.920649e-001 5.428846e-001 -4.757336e-001
    outer loop
      vertex  1.841800e-001 1.850460e-001 5.810810e-001
      vertex  3.535530e-001 3.802370e-001 1.050216e+000
      vertex  4.157350e-001 3.045810e-001 1.054339e+000
    endloop
  endfacet
  facet normal 6.920741e-001 5.428719e-001 -4.757349e-001
    outer loop
      vertex  1.841800e-001 1.850460e-001 5.810810e-001
      vertex  4.157350e-001 3.045810e-001 1.054339e+000
      vertex  2.156640e-001 1.449090e-001 5.810810e-001
    endloop
  endfacet
  facet normal 5.679620e-001 6.668029e-001 -4.824861e-001
    outer loop
      vertex  1.452110e-001 2.182390e-001 5.810810e-001
      vertex  2.777850e-001 4.423260e-001 1.046833e+000
      vertex  3.535530e-001 3.802370e-001 1.050216e+000
    endloop
  endfacet
  facet normal 5.679659e-001 6.667994e-001 -4.824865e-001
    outer loop
      vertex  1.452110e-001 2.182390e-001 5.810810e-001
      vertex  3.535530e-001 3.802370e-001 1.050216e+000
      vertex  1.841800e-001 1.850460e-001 5.810810e-001
    endloop
  endfacet
  facet normal 4.220398e-001 7.641604e-001 -4.877923e-001
    outer loop
      vertex  1.002810e-001 2.430530e-001 5.810810e-001
      vertex  1.913420e-001 4.884630e-001 1.044319e+000
      vertex  2.777850e-001 4.423260e-001 1.046833e+000
    endloop
  endfacet
  facet normal 4.220338e-001 7.641641e-001 -4.877917e-001
    outer loop
      vertex  1.002810e-001 2.430530e-001 5.810810e-001
      vertex  2.777850e-001 4.423260e-001 1.046833e+000
      vertex  1.452110e-001 2.182390e-001 5.810810e-001
    endloop
  endfacet
  facet normal 2.598805e-001 8.312294e-001 -4.914466e-001
    outer loop
      vertex  5.120400e-002 2.583970e-001 5.810810e-001
      vertex  9.754500e-002 5.168730e-001 1.042771e+000
      vertex  1.913420e-001 4.884630e-001 1.044319e+000
    endloop
  endfacet
  facet normal 2.598848e-001 8.312278e-001 -4.914471e-001
    outer loop
      vertex  5.120400e-002 2.583970e-001 5.810810e-001
      vertex  1.913420e-001 4.884630e-001 1.044319e+000
      vertex  1.002810e-001 2.430530e-001 5.810810e-001
    endloop
  endfacet
  facet normal 8.775362e-002 8.654162e-001 -4.933093e-001
    outer loop
      vertex  -0.000000e+000 2.635890e-001 5.810810e-001
      vertex  -0.000000e+000 5.264660e-001 1.042248e+000
      vertex  9.754500e-002 5.168730e-001 1.042771e+000
    endloop
  endfacet
  facet normal 8.775148e-002 8.654166e-001 -4.933091e-001
    outer loop
      vertex  -0.000000e+000 2.635890e-001 5.810810e-001
      vertex  9.754500e-002 5.168730e-001 1.042771e+000
      vertex  5.120400e-002 2.583970e-001 5.810810e-001
    endloop
  endfacet
  facet normal -8.775356e-002 8.654163e-001 -4.933092e-001
    outer loop
      vertex  -5.120400e-002 2.583970e-001 5.810810e-001
      vertex  -9.754500e-002 5.168730e-001 1.042771e+000
      vertex  -0.000000e+000 5.264660e-001 1.042248e+000
    endloop
  endfacet
  facet normal -8.775147e-002 8.654163e-001 -4.933095e-001
    outer loop
      vertex  -5.120400e-002 2.583970e-001 5.810810e-001
      vertex  -0.000000e+000 5.264660e-001 1.042248e+000
      vertex  -0.000000e+000 2.635890e-001 5.810810e-001
    endloop
  endfacet
  facet normal -2.598887e-001 8.312274e-001 -4.914457e-001
    outer loop
      vertex  -1.002810e-001 2.430530e-001 5.810810e-001
      vertex  -1.913420e-001 4.884620e-001 1.044319e+000
      vertex  -9.754500e-002 5.168730e-001 1.042771e+000
    endloop
  endfacet
  facet normal -2.598850e-001 8.312283e-001 -4.914463e-001
    outer loop
      vertex  -1.002810e-001 2.430530e-001 5.810810e-001
      vertex  -9.754500e-002 5.168730e-001 1.042771e+000
      vertex  -5.120400e-002 2.583970e-001 5.810810e-001
    endloop
  endfacet
  facet normal -4.220332e-001 7.641644e-001 -4.877916e-001
    outer loop
      vertex  -1.452110e-001 2.182390e-001 5.810810e-001
      vertex  -2.777850e-001 4.423260e-001 1.046833e+000
      vertex  -1.913420e-001 4.884620e-001 1.044319e+000
    endloop
  endfacet
  facet normal -4.220338e-001 7.641641e-001 -4.877915e-001
    outer loop
      vertex  -1.452110e-001 2.182390e-001 5.810810e-001
      vertex  -1.913420e-001 4.884620e-001 1.044319e+000
      vertex  -1.002810e-001 2.430530e-001 5.810810e-001
    endloop
  endfacet
  facet normal -5.679669e-001 6.667992e-001 -4.824855e-001
    outer loop
      vertex  -1.841800e-001 1.850460e-001 5.810810e-001
      vertex  -3.535540e-001 3.802360e-001 1.050217e+000
      vertex  -2.777850e-001 4.423260e-001 1.046833e+000
    endloop
  endfacet
  facet normal -5.679662e-001 6.667998e-001 -4.824857e-001
    outer loop
      vertex  -1.841800e-001 1.850460e-001 5.810810e-001
      vertex  -2.777850e-001 4.423260e-001 1.046833e+000
      vertex  -1.452110e-001 2.182390e-001 5.810810e-001
    endloop
  endfacet
  facet normal -6.920658e-001 5.428830e-001 -4.757341e-001
    outer loop
      vertex  -2.156640e-001 1.449090e-001 5.810810e-001
      vertex  -4.157350e-001 3.045800e-001 1.054339e+000
      vertex  -3.535540e-001 3.802360e-001 1.050217e+000
    endloop
  endfacet
  facet normal -6.920754e-001 5.428729e-001 -4.757318e-001
    outer loop
      vertex  -2.156640e-001 1.449090e-001 5.810810e-001
      vertex  -3.535540e-001 3.802360e-001 1.050217e+000
      vertex  -1.841800e-001 1.850460e-001 5.810810e-001
    endloop
  endfacet
  facet normal -7.895732e-001 3.971699e-001 -4.677930e-001
    outer loop
      vertex  -2.384930e-001 9.952600e-002 5.810810e-001
      vertex  -4.619400e-001 2.182650e-001 1.059043e+000
      vertex  -4.157350e-001 3.045800e-001 1.054339e+000
    endloop
  endfacet
  facet normal -7.895690e-001 3.971767e-001 -4.677943e-001
    outer loop
      vertex  -2.384930e-001 9.952600e-002 5.810810e-001
      vertex  -4.157350e-001 3.045800e-001 1.054339e+000
      vertex  -2.156640e-001 1.449090e-001 5.810810e-001
    endloop
  endfacet
  facet normal -8.567367e-001 2.352621e-001 -4.589705e-001
    outer loop
      vertex  -2.518810e-001 5.077000e-002 5.810810e-001
      vertex  -4.903930e-001 1.246070e-001 1.064147e+000
      vertex  -4.619400e-001 2.182650e-001 1.059043e+000
    endloop
  endfacet
  facet normal -8.567398e-001 2.352539e-001 -4.589689e-001
    outer loop
      vertex  -2.518810e-001 5.077000e-002 5.810810e-001
      vertex  -4.619400e-001 2.182650e-001 1.059043e+000
      vertex  -2.384930e-001 9.952600e-002 5.810810e-001
    endloop
  endfacet
  facet normal -8.909772e-001 6.337877e-002 -4.496028e-001
    outer loop
      vertex  -2.554510e-001 5.930000e-004 5.810810e-001
      vertex  -5.000000e-001 2.720700e-002 1.069455e+000
      vertex  -4.903930e-001 1.246070e-001 1.064147e+000
    endloop
  endfacet
  facet normal -8.909753e-001 6.339106e-002 -4.496050e-001
    outer loop
      vertex  -2.554510e-001 5.930000e-004 5.810810e-001
      vertex  -4.903930e-001 1.246070e-001 1.064147e+000
      vertex  -2.518810e-001 5.077000e-002 5.810810e-001
    endloop
  endfacet
  facet normal -8.909772e-001 -1.118611e-001 -4.400531e-001
    outer loop
      vertex  -2.492180e-001 -4.905300e-002 5.810810e-001
      vertex  -4.903930e-001 -7.019400e-002 1.074763e+000
      vertex  -5.000000e-001 2.720700e-002 1.069455e+000
    endloop
  endfacet
  facet normal -8.909772e-001 -1.118611e-001 -4.400532e-001
    outer loop
      vertex  -2.492180e-001 -4.905300e-002 5.810810e-001
      vertex  -5.000000e-001 2.720700e-002 1.069455e+000
      vertex  -2.554510e-001 5.930000e-004 5.810810e-001
    endloop
  endfacet
  facet normal -8.567365e-001 -2.837449e-001 -4.306872e-001
    outer loop
      vertex  -2.335700e-001 -9.629900e-002 5.810810e-001
      vertex  -4.619400e-001 -1.638520e-001 1.079867e+000
      vertex  -4.903930e-001 -7.019400e-002 1.074763e+000
    endloop
  endfacet
  facet normal -8.567346e-001 -2.837529e-001 -4.306857e-001
    outer loop
      vertex  -2.335700e-001 -9.629900e-002 5.810810e-001
      vertex  -4.903930e-001 -7.019400e-002 1.074763e+000
      vertex  -2.492180e-001 -4.905300e-002 5.810810e-001
    endloop
  endfacet
  facet normal -7.895700e-001 -4.456574e-001 -4.218631e-001
    outer loop
      vertex  -2.092320e-001 -1.394190e-001 5.810810e-001
      vertex  -4.157340e-001 -2.501670e-001 1.084570e+000
      vertex  -4.619400e-001 -1.638520e-001 1.079867e+000
    endloop
  endfacet
  facet normal -7.895718e-001 -4.456537e-001 -4.218638e-001
    outer loop
      vertex  -2.092320e-001 -1.394190e-001 5.810810e-001
      vertex  -4.619400e-001 -1.638520e-001 1.079867e+000
      vertex  -2.335700e-001 -9.629900e-002 5.810810e-001
    endloop
  endfacet
  facet normal -6.920683e-001 -5.913621e-001 -4.139231e-001
    outer loop
      vertex  -1.772160e-001 -1.768870e-001 5.810810e-001
      vertex  -3.535530e-001 -3.258230e-001 1.088693e+000
      vertex  -4.157340e-001 -2.501670e-001 1.084570e+000
    endloop
  endfacet
  facet normal -6.920669e-001 -5.913638e-001 -4.139228e-001
    outer loop
      vertex  -1.772160e-001 -1.768870e-001 5.810810e-001
      vertex  -4.157340e-001 -2.501670e-001 1.084570e+000
      vertex  -2.092320e-001 -1.394190e-001 5.810810e-001
    endloop
  endfacet
  facet normal -5.679628e-001 -7.152838e-001 -4.071700e-001
    outer loop
      vertex  -1.387770e-001 -2.074090e-001 5.810810e-001
      vertex  -2.777850e-001 -3.879120e-001 1.092077e+000
      vertex  -3.535530e-001 -3.258230e-001 1.088693e+000
    endloop
  endfacet
  facet normal -5.679623e-001 -7.152842e-001 -4.071699e-001
    outer loop
      vertex  -1.387770e-001 -2.074090e-001 5.810810e-001
      vertex  -3.535530e-001 -3.258230e-001 1.088693e+000
      vertex  -1.772160e-001 -1.768870e-001 5.810810e-001
    endloop
  endfacet
endsolid vcg
